<svg xmlns="http://www.w3.org/2000/svg" viewBox="0 0 2400 1350"><defs><radialGradient id="g" cx="50%" cy="48%" r="72%"><stop offset="0" stop-color="#122c54" stop-opacity=".5"/><stop offset=".46" stop-color="#07152c" stop-opacity=".38"/><stop offset="1" stop-color="#01040b"/></radialGradient><radialGradient id="n" cx="74%" cy="26%" r="28%"><stop offset="0" stop-color="#8fb7ff" stop-opacity=".28"/><stop offset=".38" stop-color="#6276ff" stop-opacity=".12"/><stop offset="1" stop-color="#020711" stop-opacity="0"/></radialGradient><linearGradient id="m" x1="0" x2="0" y1="0" y2="1"><stop offset="0" stop-color="#dce6f4"/><stop offset=".22" stop-color="#a9b4c6"/><stop offset=".58" stop-color="#3b4555"/><stop offset="1" stop-color="#060a11"/></linearGradient><filter id="b"><feGaussianBlur stdDeviation="8"/></filter><filter id="mg" x="-20%" y="-30%" width="140%" height="150%"><feGaussianBlur stdDeviation="20" result="x"/><feMerge><feMergeNode in="x"/><feMergeNode in="SourceGraphic"/></feMerge></filter></defs><rect width="2400" height="1350" fill="#01040b"/><rect width="2400" height="1350" fill="url(#g)"/><ellipse cx="1780" cy="300" rx="520" ry="270" fill="url(#n)" filter="url(#b)"/><g fill="#fff"><circle cx="72" cy="409" r="2.4" opacity=".86"/><circle cx="144" cy="247" r="1.6" opacity=".72"/><circle cx="316" cy="184" r="1.8" opacity=".8"/><circle cx="520" cy="272" r="2.3" opacity=".64"/><circle cx="718" cy="160" r="1.2" opacity=".68"/><circle cx="948" cy="224" r="1.8" opacity=".76"/><circle cx="1228" cy="150" r="2.2" opacity=".72"/><circle cx="1488" cy="218" r="2.1" opacity=".9"/><circle cx="1742" cy="162" r="1.7" opacity=".84"/><circle cx="1988" cy="236" r="1.4" opacity=".74"/><circle cx="2258" cy="288" r="1.7" opacity=".8"/><circle cx="1805" cy="498" r="4" opacity=".82"/><circle cx="1814" cy="498" r="12" opacity=".1"/></g><g opacity=".45" fill="#9dbdff" transform="rotate(-12 1840 345)"><ellipse cx="1810" cy="335" rx="155" ry="20" opacity=".16"/><ellipse cx="1838" cy="358" rx="102" ry="13" opacity=".2"/><ellipse cx="1768" cy="308" rx="74" ry="10" opacity=".18"/></g><ellipse cx="1200" cy="890" rx="1010" ry="190" fill="#8ab4ff" opacity=".28" filter="url(#b)"/><g filter="url(#mg)"><path d="M130 1040C343 826 2057 826 2270 1040H130Z" fill="#e2e9f5" opacity=".62"/><path d="M146 1046C354 852 2046 852 2254 1046H146Z" fill="url(#m)"/></g><g opacity=".52" fill="#18212c"><ellipse cx="440" cy="1002" rx="76" ry="18"/><ellipse cx="670" cy="953" rx="52" ry="14"/><ellipse cx="934" cy="990" rx="86" ry="22"/><ellipse cx="1220" cy="934" rx="130" ry="28"/><ellipse cx="1512" cy="986" rx="72" ry="18"/><ellipse cx="1780" cy="952" rx="94" ry="22"/></g><path d="M0 1080H2400V1350H0Z" fill="#020711"/></svg>