<svg xmlns="http://www.w3.org/2000/svg" viewBox="0 0 600 600" role="img" aria-label="Espaço circular para foto pessoal">
  <defs>
    <radialGradient id="back" cx="42%" cy="30%" r="70%">
      <stop offset="0%" stop-color="#284574"/>
      <stop offset="48%" stop-color="#0d1b33"/>
      <stop offset="100%" stop-color="#030711"/>
    </radialGradient>
    <linearGradient id="glow" x1="0" x2="1" y1="0" y2="1">
      <stop offset="0%" stop-color="#65a6ff"/>
      <stop offset="58%" stop-color="#8e78ff"/>
      <stop offset="100%" stop-color="#72e2dc"/>
    </linearGradient>
    <filter id="blur">
      <feGaussianBlur stdDeviation="18"/>
    </filter>
  </defs>
  <rect width="600" height="600" fill="#030711"/>
  <circle cx="300" cy="300" r="300" fill="url(#back)"/>
  <circle cx="184" cy="150" r="118" fill="#65a6ff" opacity=".18" filter="url(#blur)"/>
  <circle cx="416" cy="210" r="132" fill="#8e78ff" opacity=".16" filter="url(#blur)"/>
  <g fill="#fff" opacity=".72">
    <circle cx="92" cy="148" r="3"/>
    <circle cx="160" cy="84" r="2"/>
    <circle cx="492" cy="132" r="2.4"/>
    <circle cx="514" cy="388" r="1.8"/>
    <circle cx="102" cy="418" r="2.2"/>
    <circle cx="372" cy="78" r="1.7"/>
  </g>
  <circle cx="300" cy="238" r="82" fill="#c8d8f2" opacity=".92"/>
  <path d="M150 515C168 398 222 346 300 346S432 398 450 515H150Z" fill="#c8d8f2" opacity=".9"/>
  <path d="M150 515C168 398 222 346 300 346S432 398 450 515H150Z" fill="url(#glow)" opacity=".22"/>
  <circle cx="300" cy="300" r="285" fill="none" stroke="url(#glow)" stroke-width="8" opacity=".5"/>
</svg>
