<svg xmlns="http://www.w3.org/2000/svg" viewBox="0 0 1000 625"><defs><linearGradient id="bg" x1="0" x2="1" y1="0" y2="1"><stop offset="0" stop-color="#09172e"/><stop offset=".58" stop-color="#060914"/><stop offset="1" stop-color="#150b2b"/></linearGradient><linearGradient id="screen" x1="0" x2="1" y1="0" y2="1"><stop offset="0" stop-color="#101d38"/><stop offset="1" stop-color="#060b17"/></linearGradient><linearGradient id="card" x1="0" x2="1"><stop offset="0" stop-color="#65a6ff"/><stop offset="1" stop-color="#8e78ff"/></linearGradient><filter id="sh"><feDropShadow dx="0" dy="28" stdDeviation="28" flood-color="#000" flood-opacity=".55"/></filter></defs><rect width="1000" height="625" fill="url(#bg)"/><circle cx="826" cy="116" r="150" fill="#65a6ff" opacity=".08"/><circle cx="188" cy="484" r="210" fill="#8e78ff" opacity=".08"/><g transform="translate(376 40) rotate(14 170 270)" filter="url(#sh)"><rect width="330" height="542" rx="44" fill="#030711" stroke="#26344d" stroke-width="7"/><rect x="22" y="24" width="286" height="494" rx="32" fill="url(#screen)"/><rect x="118" y="42" width="96" height="10" rx="5" fill="#0a1221"/><rect x="44" y="80" width="120" height="12" rx="6" fill="#526b9c"/><rect x="44" y="116" width="220" height="44" rx="14" fill="url(#card)" opacity=".92"/><g transform="translate(44 184)"><rect width="104" height="140" rx="16" fill="#152541" stroke="#2d4264"/><path d="M0 90C26 52 62 84 104 40V140H0Z" fill="#65a6ff" opacity=".3"/><circle cx="78" cy="36" r="18" fill="#ffbe6f"/></g><g transform="translate(164 184)"><rect width="104" height="140" rx="16" fill="#152541" stroke="#2d4264"/><path d="M0 82C34 28 72 94 104 56V140H0Z" fill="#81d798" opacity=".3"/><circle cx="72" cy="42" r="16" fill="#f3f7ff"/></g><g fill="#2f456a"><rect x="44" y="354" width="216" height="12" rx="6"/><rect x="44" y="386" width="160" height="12" rx="6"/><rect x="44" y="432" width="72" height="32" rx="12" fill="#65a6ff"/><rect x="132" y="432" width="72" height="32" rx="12" fill="#172944"/></g></g></svg>