<svg xmlns="http://www.w3.org/2000/svg" viewBox="0 0 1000 625"><defs><linearGradient id="bg" x1="0" x2="1" y1="0" y2="1"><stop offset="0" stop-color="#071327"/><stop offset=".55" stop-color="#0b1020"/><stop offset="1" stop-color="#020712"/></linearGradient><linearGradient id="a" x1="0" x2="1"><stop offset="0" stop-color="#65a6ff"/><stop offset="1" stop-color="#8e78ff"/></linearGradient><filter id="sh"><feDropShadow dx="0" dy="18" stdDeviation="22" flood-color="#000" flood-opacity=".42"/></filter></defs><rect width="1000" height="625" fill="url(#bg)"/><g transform="translate(105 82)" filter="url(#sh)"><rect width="790" height="460" rx="18" fill="#0c1628" stroke="#213554"/><rect width="160" height="460" rx="18" fill="#091221"/><g fill="#253a5f"><rect x="28" y="40" width="84" height="10" rx="5"/><rect x="28" y="92" width="104" height="12" rx="6"/><rect x="28" y="134" width="78" height="12" rx="6"/><rect x="28" y="176" width="112" height="12" rx="6"/><rect x="28" y="218" width="66" height="12" rx="6"/></g><g transform="translate(196 48)"><rect width="150" height="82" rx="12" fill="#111f38" stroke="#2b4268"/><rect x="18" y="18" width="72" height="8" rx="4" fill="#405a86"/><rect x="18" y="45" width="98" height="13" rx="6" fill="url(#a)"/></g><g transform="translate(372 48)"><rect width="150" height="82" rx="12" fill="#111f38" stroke="#2b4268"/><rect x="18" y="18" width="76" height="8" rx="4" fill="#405a86"/><rect x="18" y="45" width="70" height="13" rx="6" fill="#72e2dc"/></g><g transform="translate(548 48)"><rect width="196" height="82" rx="12" fill="#111f38" stroke="#2b4268"/><rect x="18" y="18" width="82" height="8" rx="4" fill="#405a86"/><rect x="18" y="45" width="134" height="13" rx="6" fill="#ffbe6f"/></g><g transform="translate(196 162)"><rect width="340" height="238" rx="16" fill="#0f1c32" stroke="#2b4268"/><polyline points="28,174 82,126 134,148 184,86 242,116 306,54" fill="none" stroke="url(#a)" stroke-width="7" stroke-linecap="round" stroke-linejoin="round"/><path d="M28 174 82 126 134 148 184 86 242 116 306 54V206H28Z" fill="#65a6ff" opacity=".13"/></g><g transform="translate(566 162)"><rect width="178" height="238" rx="16" fill="#0f1c32" stroke="#2b4268"/><rect x="24" y="32" width="130" height="14" rx="7" fill="#405a86"/><rect x="24" y="76" width="92" height="12" rx="6" fill="#65a6ff"/><rect x="24" y="118" width="118" height="12" rx="6" fill="#72e2dc"/><rect x="24" y="160" width="72" height="12" rx="6" fill="#8e78ff"/><rect x="24" y="202" width="106" height="12" rx="6" fill="#ffbe6f"/></g></g></svg>