<svg xmlns="http://www.w3.org/2000/svg" viewBox="0 0 1000 625" role="img" aria-label="Capa espacial para projeto Lista Inteligente">
  <defs>
    <radialGradient id="space" cx="50%" cy="35%" r="76%">
      <stop offset="0%" stop-color="#163354"/>
      <stop offset="54%" stop-color="#07101d"/>
      <stop offset="100%" stop-color="#010307"/>
    </radialGradient>
    <linearGradient id="panel" x1="0" x2="1" y1="0" y2="1">
      <stop offset="0%" stop-color="#122642"/>
      <stop offset="100%" stop-color="#07101d"/>
    </linearGradient>
    <linearGradient id="softPanel" x1="0" x2="1" y1="0" y2="1">
      <stop offset="0%" stop-color="#eafff5" stop-opacity=".16"/>
      <stop offset="55%" stop-color="#65a6ff" stop-opacity=".08"/>
      <stop offset="100%" stop-color="#080e18" stop-opacity=".9"/>
    </linearGradient>
    <linearGradient id="green" x1="0" x2="1">
      <stop offset="0%" stop-color="#72e2dc"/>
      <stop offset="100%" stop-color="#81d798"/>
    </linearGradient>
    <linearGradient id="accent" x1="0" x2="1">
      <stop offset="0%" stop-color="#65a6ff"/>
      <stop offset="55%" stop-color="#8e78ff"/>
      <stop offset="100%" stop-color="#72e2dc"/>
    </linearGradient>
    <filter id="glow">
      <feGaussianBlur stdDeviation="8" result="blur"/>
      <feMerge>
        <feMergeNode in="blur"/>
        <feMergeNode in="SourceGraphic"/>
      </feMerge>
    </filter>
    <filter id="shadow">
      <feDropShadow dx="0" dy="18" stdDeviation="24" flood-color="#000" flood-opacity=".5"/>
    </filter>
  </defs>
  <rect width="1000" height="625" fill="url(#space)"/>
  <g fill="#fff" opacity=".68">
    <circle cx="82" cy="102" r="2"/>
    <circle cx="190" cy="260" r="1.4"/>
    <circle cx="356" cy="86" r="1.7"/>
    <circle cx="612" cy="118" r="2.1"/>
    <circle cx="862" cy="204" r="1.5"/>
    <circle cx="918" cy="444" r="1.8"/>
  </g>
  <ellipse cx="500" cy="528" rx="740" ry="150" fill="#81d798" opacity=".08"/>
  <g filter="url(#shadow)">
    <rect x="92" y="92" width="816" height="438" rx="24" fill="rgba(6,15,29,.78)" stroke="#27415f"/>
    <rect x="126" y="132" width="748" height="74" rx="18" fill="url(#softPanel)" stroke="#2d4c6d"/>
    <rect x="126" y="234" width="230" height="252" rx="18" fill="url(#panel)" stroke="#2d4c6d"/>
    <rect x="384" y="234" width="490" height="252" rx="18" fill="url(#panel)" stroke="#2d4c6d"/>
  </g>
  <g fill="none" stroke="url(#accent)" stroke-width="3" opacity=".55">
    <path d="M126 208H874"/>
    <path d="M384 234V486"/>
  </g>
  <g>
    <rect x="154" y="156" width="118" height="16" rx="8" fill="#f5f7ff" opacity=".88"/>
    <rect x="692" y="144" width="138" height="40" rx="12" fill="#0b1627" stroke="#2d4c6d"/>
    <rect x="716" y="158" width="68" height="12" rx="6" fill="#dbe8ff" opacity=".86"/>
    <rect x="798" y="154" width="18" height="18" rx="5" fill="none" stroke="url(#green)" stroke-width="4"/>
  </g>
  <g transform="translate(154 260)">
    <rect width="174" height="34" rx="10" fill="#0b1627" stroke="#2d4c6d"/>
    <rect y="58" width="174" height="34" rx="10" fill="#0b1627" stroke="#2d4c6d"/>
    <rect y="116" width="174" height="34" rx="10" fill="#0b1627" stroke="#2d4c6d"/>
    <rect y="174" width="174" height="42" rx="12" fill="url(#green)" opacity=".85"/>
    <g fill="#dbe8ff" opacity=".82">
      <rect x="18" y="12" width="88" height="9" rx="4.5"/>
      <rect x="18" y="70" width="112" height="9" rx="4.5"/>
      <rect x="18" y="128" width="72" height="9" rx="4.5"/>
    </g>
  </g>
  <g transform="translate(418 260)">
    <rect width="420" height="56" rx="14" fill="#0b1627" stroke="#81d798" stroke-opacity=".56"/>
    <rect y="78" width="420" height="56" rx="14" fill="#0b1627" stroke="#81d798" stroke-opacity=".44"/>
    <rect y="156" width="420" height="56" rx="14" fill="#0b1627" stroke="#ff7c7c" stroke-opacity=".55"/>
    <rect x="18" y="20" width="128" height="12" rx="6" fill="#f5f7ff" opacity=".86"/>
    <rect x="18" y="98" width="150" height="12" rx="6" fill="#f5f7ff" opacity=".78"/>
    <rect x="18" y="176" width="132" height="12" rx="6" fill="#f5f7ff" opacity=".76"/>
    <rect x="286" y="18" width="84" height="20" rx="10" fill="url(#green)" opacity=".9"/>
    <rect x="286" y="96" width="92" height="20" rx="10" fill="url(#green)" opacity=".75"/>
    <rect x="286" y="174" width="76" height="20" rx="10" fill="#ffbe6f" opacity=".75"/>
  </g>
  <g filter="url(#glow)">
    <circle cx="274" cy="168" r="24" fill="url(#green)"/>
    <circle cx="316" cy="168" r="24" fill="#65a6ff"/>
    <circle cx="358" cy="168" r="24" fill="#8e78ff"/>
  </g>
  <g fill="#05101a" opacity=".85">
    <path d="M265 168H283"/>
    <path d="M274 159V177"/>
    <path d="M309 168H323"/>
    <path d="M350 162H366V174H350Z"/>
  </g>
  <path d="M92 528C270 468 454 512 626 456C738 420 826 436 908 390V625H92Z" fill="url(#green)" opacity=".08"/>
</svg>
