<svg xmlns="http://www.w3.org/2000/svg" viewBox="0 0 1000 625"><defs><linearGradient id="sky" x1="0" x2="0" y1="0" y2="1"><stop offset="0" stop-color="#4d2c72"/><stop offset=".48" stop-color="#c35f65"/><stop offset="1" stop-color="#180b24"/></linearGradient></defs><rect width="1000" height="625" fill="url(#sky)"/><rect width="1000" height="625" fill="#000" opacity=".08"/><path d="M0 370 170 250 330 360 480 224 650 374Z" fill="#34234c" opacity=".72"/><path d="M398 394 574 260 808 394Z" fill="#251a3d" opacity=".8"/><g shape-rendering="crispEdges"><rect x="670" y="142" width="138" height="138" fill="#ffbf6b"/><rect x="0" y="420" width="1000" height="205" fill="#1a1027"/><rect x="0" y="394" width="1000" height="26" fill="#2b1839"/><rect x="0" y="370" width="1000" height="24" fill="#41244a"/><rect x="80" y="292" width="260" height="48" fill="#3a2446"/><rect x="80" y="292" width="260" height="16" fill="#6e8f4e"/><rect x="612" y="312" width="250" height="48" fill="#3a2446"/><rect x="612" y="312" width="250" height="16" fill="#6e8f4e"/><rect x="160" y="244" width="48" height="48" fill="#182238"/><rect x="176" y="212" width="16" height="32" fill="#ffbe6f"/><rect x="144" y="260" width="16" height="32" fill="#65a6ff"/><rect x="208" y="260" width="16" height="32" fill="#65a6ff"/><rect x="176" y="292" width="16" height="48" fill="#ffbe6f"/><rect x="200" y="292" width="16" height="48" fill="#ffbe6f"/><rect x="176" y="228" width="16" height="16" fill="#f7d7a8"/><rect x="192" y="228" width="16" height="16" fill="#f7d7a8"/><rect x="704" y="272" width="48" height="40" fill="#1a1a30"/><rect x="688" y="296" width="80" height="16" fill="#26395e"/><rect x="704" y="252" width="48" height="20" fill="#ffbe6f"/></g></svg>