<svg xmlns="http://www.w3.org/2000/svg" viewBox="0 0 1000 625"><defs><linearGradient id="sky" x1="0" x2="0" y1="0" y2="1"><stop offset="0" stop-color="#123456"/><stop offset=".46" stop-color="#1b4750"/><stop offset="1" stop-color="#071018"/></linearGradient><linearGradient id="forest" x1="0" x2="0" y1="0" y2="1"><stop offset="0" stop-color="#8edaa3"/><stop offset="1" stop-color="#0d321f"/></linearGradient><filter id="sh"><feDropShadow dx="0" dy="18" stdDeviation="24" flood-color="#000" flood-opacity=".45"/></filter></defs><rect width="1000" height="625" fill="#030711"/><g transform="translate(70 70)" filter="url(#sh)"><rect width="860" height="485" rx="18" fill="url(#sky)" stroke="#284867"/><rect width="860" height="56" rx="18" fill="#07101d" opacity=".92"/><rect x="34" y="24" width="94" height="9" rx="4.5" fill="#e8f7ff" opacity=".72"/><rect x="590" y="24" width="48" height="8" rx="4" fill="#7f94b5"/><rect x="664" y="24" width="48" height="8" rx="4" fill="#7f94b5"/><rect x="738" y="18" width="82" height="20" rx="10" fill="#81d798"/><circle cx="676" cy="152" r="76" fill="#ffbe6f" opacity=".54"/><path d="M0 370 148 190 254 332 382 144 564 370Z" fill="#b7d9dd"/><path d="M104 370 278 174 444 370Z" fill="#466f75"/><path d="M340 370 554 128 780 370Z" fill="#84b9b4"/><path d="M522 370 704 210 860 370Z" fill="#31585d"/><path d="M0 398C132 338 230 410 352 354C478 296 554 406 684 346C760 312 814 334 860 312V485H0Z" fill="url(#forest)"/><g transform="translate(70 138)"><rect width="248" height="18" rx="9" fill="#fff" opacity=".95"/><rect y="34" width="168" height="18" rx="9" fill="#fff" opacity=".88"/><rect y="78" width="242" height="10" rx="5" fill="#d7e7ee" opacity=".64"/><rect y="100" width="194" height="10" rx="5" fill="#d7e7ee" opacity=".55"/><rect y="138" width="104" height="36" rx="18" fill="#ffbe6f"/></g></g></svg>