<svg xmlns="http://www.w3.org/2000/svg" viewBox="0 0 1000 625" role="img" aria-label="Capa espacial para projeto As Fases da Lua">
  <defs>
    <radialGradient id="sky" cx="48%" cy="32%" r="72%">
      <stop offset="0%" stop-color="#13284b"/>
      <stop offset="52%" stop-color="#050b16"/>
      <stop offset="100%" stop-color="#010307"/>
    </radialGradient>
    <linearGradient id="moonSurface" x1="0" x2="0" y1="0" y2="1">
      <stop offset="0%" stop-color="#dbe4f2"/>
      <stop offset="32%" stop-color="#9da8b8"/>
      <stop offset="72%" stop-color="#343d4c"/>
      <stop offset="100%" stop-color="#080d15"/>
    </linearGradient>
    <linearGradient id="glass" x1="0" x2="1" y1="0" y2="1">
      <stop offset="0%" stop-color="#dfeaff" stop-opacity=".34"/>
      <stop offset="45%" stop-color="#9bbcff" stop-opacity=".12"/>
      <stop offset="100%" stop-color="#070d18" stop-opacity=".88"/>
    </linearGradient>
    <linearGradient id="accent" x1="0" x2="1">
      <stop offset="0%" stop-color="#65a6ff"/>
      <stop offset="55%" stop-color="#8e78ff"/>
      <stop offset="100%" stop-color="#72e2dc"/>
    </linearGradient>
    <filter id="glow">
      <feGaussianBlur stdDeviation="8" result="blur"/>
      <feMerge>
        <feMergeNode in="blur"/>
        <feMergeNode in="SourceGraphic"/>
      </feMerge>
    </filter>
    <filter id="shadow">
      <feDropShadow dx="0" dy="18" stdDeviation="22" flood-color="#000" flood-opacity=".52"/>
    </filter>
  </defs>
  <rect width="1000" height="625" fill="url(#sky)"/>
  <g fill="#fff" opacity=".75">
    <circle cx="80" cy="104" r="2"/>
    <circle cx="206" cy="210" r="1.4"/>
    <circle cx="362" cy="88" r="1.8"/>
    <circle cx="548" cy="152" r="1.5"/>
    <circle cx="742" cy="88" r="2.1"/>
    <circle cx="886" cy="234" r="1.7"/>
    <circle cx="936" cy="430" r="1.3"/>
  </g>
  <path d="M0 398C126 322 258 346 412 318C602 284 772 298 1000 238V625H0Z" fill="url(#moonSurface)" opacity=".9"/>
  <g fill="#18202b" opacity=".36">
    <ellipse cx="126" cy="482" rx="82" ry="22"/>
    <ellipse cx="318" cy="426" rx="58" ry="16"/>
    <ellipse cx="622" cy="394" rx="96" ry="24"/>
    <ellipse cx="842" cy="336" rx="74" ry="20"/>
  </g>
  <g filter="url(#shadow)">
    <rect x="306" y="92" width="388" height="420" rx="22" fill="#07101d" stroke="#284366"/>
    <rect x="326" y="114" width="348" height="58" rx="10" fill="url(#glass)" stroke="#9bbcff" stroke-opacity=".2"/>
    <rect x="326" y="196" width="348" height="232" rx="10" fill="#02050c" stroke="#172743"/>
    <rect x="326" y="450" width="348" height="42" rx="10" fill="#101a2a" stroke="#243855"/>
  </g>
  <g fill="#fff">
    <rect x="348" y="137" width="104" height="10" rx="5" opacity=".95"/>
    <circle cx="490" cy="142" r="4" opacity=".66"/>
    <circle cx="522" cy="142" r="4" opacity=".52"/>
    <circle cx="554" cy="142" r="4" opacity=".4"/>
  </g>
  <g filter="url(#glow)">
    <circle cx="518" cy="310" r="84" fill="#eef5ff"/>
    <circle cx="552" cy="282" r="92" fill="#02050c"/>
  </g>
  <path d="M436 374C493 394 570 366 615 300C595 384 514 438 436 374Z" fill="#9faabb" opacity=".22"/>
  <g fill="none" stroke="url(#accent)" stroke-width="4" opacity=".62">
    <path d="M274 306C190 308 148 344 132 414"/>
    <path d="M726 306C810 308 852 344 868 414"/>
  </g>
  <g fill="#f5f7ff" filter="url(#glow)">
    <circle cx="132" cy="414" r="34"/>
    <circle cx="868" cy="414" r="34"/>
  </g>
  <g stroke="#030711" stroke-width="12" stroke-linecap="round" stroke-linejoin="round" fill="none">
    <path d="M146 414H116"/>
    <path d="M116 414L130 400"/>
    <path d="M116 414L130 428"/>
    <path d="M854 414H884"/>
    <path d="M884 414L870 400"/>
    <path d="M884 414L870 428"/>
  </g>
  <path d="M326 196L674 196" stroke="url(#accent)" stroke-width="3" opacity=".55"/>
  <path d="M326 450L674 450" stroke="url(#accent)" stroke-width="3" opacity=".42"/>
</svg>
